<?xml version="1.0" encoding="utf-8"?>
<!-- Generator: Adobe Illustrator 27.5.0, SVG Export Plug-In . SVG Version: 6.00 Build 0)  -->
<svg version="1.1" id="Ebene_1" xmlns="http://www.w3.org/2000/svg" xmlns:xlink="http://www.w3.org/1999/xlink" x="0px" y="0px"
	 viewBox="0 0 247 221" style="enable-background:new 0 0 247 221;" xml:space="preserve">
<style type="text/css">
	.st0{fill:url(#SVGID_1_);}
	.st1{fill:url(#SVGID_00000119105159102882892370000011139656915904037520_);}
	.st2{fill:url(#SVGID_00000076564994983613111210000007195409279288361605_);}
	.st3{fill:url(#SVGID_00000054256522945995892710000011385515629626481821_);}
	.st4{fill:url(#SVGID_00000125582357350271392910000008970117040557630368_);}
	.st5{fill:url(#SVGID_00000164483849448294529780000006250228671437632943_);}
</style>
<g>
	<linearGradient id="SVGID_1_" gradientUnits="userSpaceOnUse" x1="125.9752" y1="-0.1986" x2="125.9752" y2="214.9187">
		<stop  offset="0" style="stop-color:#2D4E64"/>
		<stop  offset="1" style="stop-color:#5E8EAA"/>
	</linearGradient>
	<path class="st0" d="M230.5,144.9c0.7-1.3,1.3-2.6,2-3.9c2.8-5.4,4.9-11.1,5.3-17.2c0.8-12.5-4.5-21.9-14.9-28.5
		c-7.8-4.9-16.6-6.6-25.8-6.4c-10.2,0.2-19.3,3.7-27.7,8.9c-10.2,6.2-20.1,12.8-30.2,19.2c-11.8,7.5-23.7,15.1-35.6,22.6
		c-0.6,0.4-1.5,0.4-2.2,0.2c-3.8-0.7-7.5-1.5-11.4-0.8c-5,0.9-8.4,3.8-10.3,8.5c-0.4,0.9-0.9,1.3-1.9,1.3
		c-10.2,0.4-20.3,0.9-30.5-0.4c-8.9-1.1-17.7-2.8-25.4-7.7C11.6,134.2,6,124.9,5.4,112.8c-0.3-6.1,0.2-12.1,0.3-18.2
		c0.3,0,0.5-0.1,0.8-0.1c0.4,0.9,0.8,1.8,1.1,2.7c1.4,5.8,3.8,11.3,7.1,16.2c6.1,9,14.7,14.1,25.3,16c10.5,1.9,20.8,0.3,30.9-2.9
		c14.3-4.5,27-11.8,39-20.6c3.4-2.5,6.7-5.2,10-7.7c0.5-0.4,1.3-0.4,1.9-0.3c3.9,0.1,8,0.8,11.8,0.2c7.8-1.3,12.4-6.5,13.7-14.5
		c0.1-0.6,0.4-1.4,0.9-1.6c5.9-3,11.6-6.3,17.7-8.8c11.1-4.6,22.8-5.7,34.8-4.6c9.7,0.9,18.7,3.9,26.7,9.4
		c7.9,5.4,14.4,12.2,17.3,21.6c4,12.7,1.7,24.6-5.7,35.5c-2.3,3.3-5,6.3-7.6,9.5c-0.2,0.2-0.5,0.4-0.7,0.5
		C230.6,145.1,230.6,145,230.5,144.9z"/>
	
		<linearGradient id="SVGID_00000134246559901271749120000010014649043000164237_" gradientUnits="userSpaceOnUse" x1="122.5803" y1="-0.1986" x2="122.5803" y2="214.9187">
		<stop  offset="0" style="stop-color:#2D4E64"/>
		<stop  offset="1" style="stop-color:#5E8EAA"/>
	</linearGradient>
	<path style="fill:url(#SVGID_00000134246559901271749120000010014649043000164237_);" d="M17.3,37.4c-1.4,2.2-2.8,4-3.9,6
		c-3.9,6.6-6,13.7-5.2,21.5c1,8.6,5.2,15.4,12,20.6c11.9,8.9,25,10.1,38.9,5.5c10.4-3.5,20.2-8.3,29.8-13.5
		c14.7-8.1,28.6-17.6,42.2-27.4c4.1-3,8.3-6,12.5-8.9c0.6-0.4,1.6-0.6,2.4-0.5c3.3,0.3,6.6,1,9.9,1c5.4,0,10.6-2.1,12.3-8.6
		c0.1-0.5,1-1,1.6-1.1c6.7-0.7,13.5-1.2,20.3-0.8c10.1,0.6,19.7,3,28.7,7.6c7.6,4,14.1,9.3,18.9,16.4c4.5,6.7,7,14.1,6.9,22.2
		c0,2.5,0,5.1,0,7.6c-0.1,0-0.3,0.1-0.4,0.1c-0.2-0.5-0.5-0.9-0.7-1.4c-3.6-7.2-7.5-14.1-13.3-19.9c-7.4-7.3-16.3-11.4-26.6-12.4
		c-12.6-1.2-24.3,2.2-35.7,7.1c-9.4,4.1-18.1,9.4-26.5,15.3c-1.2,0.8-2.2,1-3.6,0.7c-4.5-1.1-9.1-1.3-13.7-0.5
		c-9,1.6-12.4,7.7-12,16.1c0,0.9,0.2,1.7-0.8,2.3c-11.3,6-22.5,12.2-34.6,16.6c-7.4,2.7-15.1,4.9-23,5c-14.3,0.2-26.8-4.7-37.7-14
		C9.1,94,4.2,86.7,1.9,77.8c-3.6-13.6,0.2-25.3,9.5-35.5c1.6-1.8,3.5-3.3,5.2-4.9C16.7,37.4,16.8,37.4,17.3,37.4z"/>
	
		<linearGradient id="SVGID_00000169554004815971426160000007679732339583856292_" gradientUnits="userSpaceOnUse" x1="133.1108" y1="-0.1986" x2="133.1108" y2="214.9187">
		<stop  offset="0" style="stop-color:#2D4E64"/>
		<stop  offset="1" style="stop-color:#5E8EAA"/>
	</linearGradient>
	<path style="fill:url(#SVGID_00000169554004815971426160000007679732339583856292_);" d="M210,154.7c1.2-2.7,2.4-5.3,3.5-8
		c1.5-3.8,2.9-7.8,2.8-11.9c-0.2-7.4-4.8-11.5-11.8-11.1c-6.4,0.3-12.4,2.5-17.9,5.8c-5.1,3-9.9,6.5-14.9,9.7
		c-0.6,0.4-1.5,0.5-2.2,0.4c-2-0.4-3.9-1.1-5.8-1.4c-6.2-1-11.4,1.9-13.9,7.9c-1.1,2.5-1.6,5.3-2.4,7.9c-0.2,0.7-0.6,1.5-1.1,1.8
		c-14.7,10.2-30.4,17.9-48.2,20.7c-20.3,3.2-38.7-1.3-55.1-13.9c-1.9-1.5-3.8-3-5.7-4.8c0.7,0.1,1.5,0.2,2.2,0.4
		c7.1,2,14.3,3.4,21.6,4c5.5,0.4,11,0.5,16.4-0.7c2.5-0.5,5-1.1,7.5-1.5c0.6-0.1,1.3-0.1,1.8,0.1c3.3,1.3,6.8,1.1,10.2,0.8
		c3.6-0.3,6.8-2.2,8.2-5.7c1.2-3,3.2-4.9,5.9-6.6c15.9-10.5,31.7-21.4,47.7-31.7c9-5.8,18.4-11.3,28.7-14.6
		c7.7-2.5,15.4-3.3,23.3-1.2c12.3,3.3,19.8,14.9,17.8,27.5c-1.4,9.3-6.6,16.3-13.3,22.4c-1.5,1.4-3.2,2.7-4.8,4.1
		C210.3,154.9,210.1,154.8,210,154.7z"/>
	
		<linearGradient id="SVGID_00000142155801129541915070000013085758927112212148_" gradientUnits="userSpaceOnUse" x1="111.9977" y1="-0.1986" x2="111.9977" y2="214.9187">
		<stop  offset="0" style="stop-color:#2D4E64"/>
		<stop  offset="1" style="stop-color:#5E8EAA"/>
	</linearGradient>
	<path style="fill:url(#SVGID_00000142155801129541915070000013085758927112212148_);" d="M37.5,26.3c-2.1,4.3-4.1,8.3-6,12.3
		c-1.8,3.7-2.2,7.7-1.9,11.7c0.3,4.9,4.6,8.5,10.3,8.7c3.8,0.2,7.4-0.9,10.9-2.1C59.6,54,67,48.8,74.3,43.2c0.7-0.6,1.9-0.9,2.8-0.9
		c2.4-0.1,4.9,0.2,7.3,0c5.1-0.4,8.6-3.2,10.9-7.7c0.6-1.1,1.1-2.2,1.3-3.4c0.4-2.8,2.1-4.4,4.5-5.9c10.4-6.4,21.2-12,32.9-15.9
		c8.3-2.7,16.8-4.3,25.5-4.4c9.9-0.1,19.5,1.9,28.5,6.3c6.4,3,12.1,7.1,17.4,11.6c0.3,0.3,0.6,0.7,1,1.1c-4.5-1.5-8.7-3.1-13.1-4.3
		c-10.7-2.8-21.3-2.9-31.7,1.2c-0.8,0.3-1.9,0.3-2.8,0.1c-4-0.6-7.9-0.8-11.9,0.2s-6.7,3.4-8.3,7.3c-0.6,1.4-1.5,2.9-2.7,3.8
		c-5.9,4.8-11.9,9.4-18,14c-14.2,10.8-29.3,20-45.8,27c-7.1,3-14.4,5.3-22.1,6.1c-5.8,0.6-11.7,0.4-17.3-1.6
		C21.2,73.7,14.4,63,19.1,49.2c2.2-6.5,6.2-11.8,11-16.7c1.7-1.7,3.6-3.3,5.4-5C36,27.2,36.6,26.8,37.5,26.3z"/>
	
		<linearGradient id="SVGID_00000069356732400209198830000001562271358285211265_" gradientUnits="userSpaceOnUse" x1="167.8673" y1="-0.1986" x2="167.8673" y2="214.9187">
		<stop  offset="0" style="stop-color:#2D4E64"/>
		<stop  offset="1" style="stop-color:#5E8EAA"/>
	</linearGradient>
	<path style="fill:url(#SVGID_00000069356732400209198830000001562271358285211265_);" d="M162.8,221c-2.5-1.5-4.6-2.7-6.6-4.1
		c-7.5-4.9-14.5-10.5-19.7-17.9c-5.8-8.4-5.3-17.5,1.3-25.2c3.7-4.3,8-7.8,12.8-10.8c0.7-0.4,1.6-0.5,2.4-0.5
		c3.7,0,7.4,0.1,11.1-0.9c5.7-1.6,9.6-5,11.7-10.5c0.6-1.6,1.5-2.7,2.9-3.7c3.7-2.6,7.5-4.9,11.7-6.2c2-0.6,4.3-0.8,6.4-0.7
		c4,0.2,6.1,2.8,6.4,6.7c0.6,8.7-3.4,15-10.3,19.8c-5.1,3.6-10.9,5.7-16.6,8c-5.9,2.3-10.9,5.7-14.5,11c-4.4,6.5-4.8,13.7-3.1,21.1
		c0.9,4,2.4,7.8,3.6,11.7C162.3,219.5,162.5,220,162.8,221z"/>
	
		<linearGradient id="SVGID_00000173119504633275149030000004351010264302681249_" gradientUnits="userSpaceOnUse" x1="85.1724" y1="-0.1986" x2="85.1724" y2="214.9187">
		<stop  offset="0" style="stop-color:#2D4E64"/>
		<stop  offset="1" style="stop-color:#5E8EAA"/>
	</linearGradient>
	<path style="fill:url(#SVGID_00000173119504633275149030000004351010264302681249_);" d="M129.2,3.5c-3.4,0.9-6.6,1.7-9.7,2.6
		c-9.9,2.9-18.9,7.4-26.9,13.8c-0.8,0.6-1.5,0.7-2.4,0.3c-3.5-1.3-6.9-1.8-10.6-0.5c-6.3,2.3-9.6,8-9.5,14.8c0,0.6-0.2,1.5-0.7,1.8
		c-5.2,3.4-10.6,6.5-16.7,8.1c-2.2,0.6-4.6,0.7-6.9,0.6c-2.7-0.1-4.4-2-4.6-4.6c-0.4-5.8,1.4-10.9,4.6-15.6
		c4.4-6.5,10.8-10.8,17.6-14.5C73.9,4.8,85.3,2.2,97,1c9.1-0.9,18.2-0.5,27.2,1.1c1.5,0.3,2.9,0.7,4.4,1
		C128.8,3.1,128.9,3.2,129.2,3.5z"/>
</g>
</svg>
